<?xml version="1.0" encoding="utf-8"?>
<!-- Generator: Adobe Illustrator 19.2.1, SVG Export Plug-In . SVG Version: 6.00 Build 0)  -->
<svg version="1.1" id="Слой_1" xmlns="http://www.w3.org/2000/svg" xmlns:xlink="http://www.w3.org/1999/xlink" x="0px" y="0px"
	 viewBox="0 0 25.9 23" style="enable-background:new 0 0 25.9 23;" xml:space="preserve">
<style type="text/css">
	.st0{fill:#D0523F;}
</style>
<path class="st0" d="M13,23l-0.6-0.4C11.9,22.3,0,14.6,0,7.6C0,2.6,3.6,0,7.1,0c2.3,0,4.4,1,5.9,2.8C14.4,1,16.6,0,18.8,0
	c3.5,0,7.1,2.6,7.1,7.6c0,7-11.9,14.7-12.4,15.1L13,23z M7.1,2.2c-2.4,0-4.9,1.7-4.9,5.4C2.2,12.1,9.5,18,13,20.4
	c3.5-2.4,10.8-8.3,10.8-12.9c0-3.7-2.5-5.4-4.9-5.4c-1.9,0-3.7,1.1-4.8,2.9c0,0.1-0.1,0.1-0.1,0.2l-1,1.8l-1-1.8
	c0-0.1-0.1-0.1-0.1-0.2C10.8,3.2,9,2.2,7.1,2.2z"/>
</svg>
